#!OML:ASF H:\LiuWeirdWalks\Patient Classification 1\Patient 1\Session 1\male.ASF
:FULLY-SPECIFIED
:DEGREES
772
root 2.29136 18.2611 -4.01826 6.08835 6.32105 -13.1864
lowerback 13.0703 -1.47657 -10.587
upperback 1.0529 -3.75505 -4.50257
thorax -5.86073 -1.6086 1.81785
lowerneck -16.8673 1.20034 6.97262
upperneck 15.6706 -1.42872 6.85666
head 7.68647 0.417107 0.973263
rclavicle -1.11319e-014 -4.13472e-014
rhumerus -25.0027 -31.3998 5.91771
rradius 32.4472
rwrist -1.9136
rhand -20.5798 -3.88896
rfingers 7.12502
rthumb 5.78009 -33.7901
lclavicle -1.11319e-014 -4.13472e-014
lhumerus -28.9731 34.8139 32.8267
lradius 34.4255
lwrist 9.45443
lhand -20.0692 -2.53841
lfingers 7.12502
lthumb 6.27299 27.3487
rfemur -4.88016 -6.21816 24.4553
rtibia 47.5984
rfoot 22.0651 -13.5177
rtoes 7.35194
lfemur -19.4926 0.615817 -2.42895
ltibia 31.5139
lfoot -9.66654 13.3
ltoes -13.0806
773
root 2.30014 18.2588 -3.96688 6.01259 6.43144 -13.097
lowerback 13.1415 -1.47297 -10.6569
upperback 1.09481 -3.76964 -4.56391
thorax -5.85391 -1.61564 1.79552
lowerneck -16.9492 1.163 6.90109
upperneck 15.7155 -1.4998 6.98956
head 7.71826 0.395949 1.02171
rclavicle -1.98785e-014 -6.36111e-015
rhumerus -25.0861 -31.2123 5.89569
rradius 32.463
rwrist -2.01616
rhand -20.5631 -4.01695
rfingers 7.12502
rthumb 5.79619 -33.9177
lclavicle -1.98785e-014 -6.36111e-015
lhumerus -29.003 34.9016 32.846
lradius 34.4046
lwrist 9.43364
lhand -20.0889 -2.54364
lfingers 7.12502
lthumb 6.25395 27.344
rfemur -5.17763 -6.30472 24.412
rtibia 48.124
rfoot 21.1737 -13.811
rtoes 6.69398
lfemur -19.2465 0.559819 -2.54788
ltibia 31.4947
lfoot -9.79696 13.2633
ltoes -13.1726
774
root 2.3083 18.2557 -3.91636 5.93165 6.51808 -12.9992
lowerback 13.2228 -1.46418 -10.7308
upperback 1.13456 -3.77986 -4.6253
thorax -5.85524 -1.62002 1.77493
lowerneck -17.0128 1.10611 6.76864
upperneck 15.7573 -1.58946 7.17134
head 7.74687 0.366545 1.09377
rclavicle 1.74931e-014 0
rhumerus -25.1529 -31.0025 5.84677
rradius 32.4774
rwrist -2.13254
rhand -20.5011 -4.02078
rfingers 7.12502
rthumb 5.85601 -33.9199
lclavicle 1.74931e-014 0
lhumerus -29.0396 34.9528 32.8684
lradius 34.393
lwrist 9.41914
lhand -20.1129 -2.5552
lfingers 7.12502
lthumb 6.23085 27.3332
rfemur -5.48291 -6.37641 24.3675
rtibia 48.6432
rfoot 19.9369 -14.1179
rtoes 6.06763
lfemur -18.9904 0.514131 -2.67542
ltibia 31.4791
lfoot -9.92379 13.2416
ltoes -13.2554
775
root 2.31614 18.2523 -3.8668 5.85025 6.58403 -12.8847
lowerback 13.3071 -1.45161 -10.8104
upperback 1.17423 -3.78678 -4.69022
thorax -5.85855 -1.6226 1.75331
lowerneck -17.039 1.0429 6.61461
upperneck 15.7736 -1.67942 7.37023
head 7.76096 0.335328 1.17438
rclavicle -2.06736e-014 -1.59028e-014
rhumerus -25.2053 -30.7901 5.77862
rradius 32.4946
rwrist -2.24632
rhand -20.4654 -4.09709
rfingers 7.12502
rthumb 5.89047 -33.9952
lclavicle -2.06736e-014 -1.59028e-014
lhumerus -29.0764 34.9527 32.9023
lradius 34.386
lwrist 9.4
lhand -20.1463 -2.57084
lfingers 7.12502
lthumb 6.19857 27.3185
rfemur -5.80271 -6.43876 24.3116
rtibia 49.1486
rfoot 18.4028 -14.4292
rtoes 5.49587
lfemur -18.7296 0.467579 -2.82234
ltibia 31.4662
lfoot -10.0494 13.2435
ltoes -13.2826
776
root 2.32348 18.2485 -3.818 5.76239 6.62974 -12.7598
lowerback 13.4024 -1.43575 -10.8915
upperback 1.20874 -3.79224 -4.75815
thorax -5.87387 -1.62375 1.7295
lowerneck -17.007 0.983114 6.48155
upperneck 15.7681 -1.75913 7.55406
head 7.75753 0.306375 1.24715
rclavicle -5.56597e-015 -1.90833e-014
rhumerus -25.2341 -30.6142 5.69593
rradius 32.5027
rwrist -2.34477
rhand -20.3902 -4.07488
rfingers 7.12502
rthumb 5.96307 -33.971
lclavicle -5.56597e-015 -1.90833e-014
lhumerus -29.1228 34.92 32.9335
lradius 34.369
lwrist 9.37053
lhand -20.1532 -2.61951
lfingers 7.12502
lthumb 6.19187 27.27
rfemur -6.13109 -6.48119 24.2542
rtibia 49.6323
rfoot 16.6554 -14.7498
rtoes 4.97323
lfemur -18.4599 0.41127 -2.98164
ltibia 31.4578
lfoot -10.168 13.2828
ltoes -13.2779
777
root 2.33043 18.2441 -3.77015 5.67178 6.66541 -12.6304
lowerback 13.5033 -1.42043 -10.9639
upperback 1.23794 -3.79891 -4.82774
thorax -5.89855 -1.62514 1.69962
lowerneck -16.8875 0.943255 6.43227
upperneck 15.6812 -1.8017 7.66182
head 7.71002 0.286603 1.28395
rclavicle 5.32743e-014 -1.27222e-014
rhumerus -25.2459 -30.4747 5.60908
rradius 32.4993
rwrist -2.43427
rhand -20.3089 -4.01783
rfingers 7.12502
rthumb 6.04162 -33.9117
lclavicle 5.32743e-014 -1.27222e-014
lhumerus -29.1825 34.8457 32.9673
lradius 34.3493
lwrist 9.34063
lhand -20.1436 -2.68952
lfingers 7.12502
lthumb 6.20114 27.1997
rfemur -6.47008 -6.50519 24.2003
rtibia 50.0818
rfoot 14.7867 -15.1333
rtoes 4.48314
lfemur -18.1901 0.329801 -3.14741
ltibia 31.4543
lfoot -10.2814 13.3676
ltoes -13.2155
778
root 2.33692 18.2391 -3.72332 5.58156 6.69697 -12.4994
lowerback 13.6155 -1.40969 -11.0276
upperback 1.25805 -3.81326 -4.89681
thorax -5.93906 -1.62944 1.66739
lowerneck -16.7576 0.906453 6.37183
upperneck 15.6333 -1.84378 7.79079
head 7.67423 0.270054 1.32999
rclavicle -1.35174e-014 -2.8625e-014
rhumerus -25.2306 -30.3653 5.51212
rradius 32.4896
rwrist -2.49712
rhand -20.2398 -3.94223
rfingers 7.12502
rthumb 6.10826 -33.8342
lclavicle -1.35174e-014 -2.8625e-014
lhumerus -29.268 34.7491 32.9974
lradius 34.3314
lwrist 9.31168
lhand -20.122 -2.73528
lfingers 7.12502
lthumb 6.22206 27.1533
rfemur -6.82684 -6.50489 24.1558
rtibia 50.4895
rfoot 12.8861 -15.618
rtoes 3.96317
lfemur -17.9267 0.215273 -3.31566
ltibia 31.4584
lfoot -10.3923 13.5008
ltoes -13.1019
779
root 2.34349 18.2335 -3.67689 5.48412 6.72182 -12.3594
lowerback 13.7298 -1.40393 -11.0805
upperback 1.28212 -3.83304 -4.97174
thorax -5.97702 -1.63693 1.62398
lowerneck -16.6336 0.896744 6.3697
upperneck 15.5724 -1.85294 7.86892
head 7.63391 0.267188 1.35351
rclavicle -3.97569e-014 -1.90833e-014
rhumerus -25.1935 -30.2784 5.39894
rradius 32.4944
rwrist -2.60548
rhand -20.1787 -3.81215
rfingers 7.12502
rthumb 6.16731 -33.7024
lclavicle -3.97569e-014 -1.90833e-014
lhumerus -29.3585 34.671 33.0246
lradius 34.2961
lwrist 9.26993
lhand -20.0789 -2.77227
lfingers 7.12502
lthumb 6.26364 27.1151
rfemur -7.18572 -6.48817 24.1022
rtibia 50.8467
rfoot 11.0137 -16.1901
rtoes 3.35828
lfemur -17.6546 0.0658638 -3.49874
ltibia 31.4719
lfoot -10.5119 13.6854
ltoes -12.9403
780
root 2.34945 18.2268 -3.6318 5.38637 6.74436 -12.2125
lowerback 13.8629 -1.40115 -11.1305
upperback 1.29778 -3.86044 -5.04736
thorax -6.03408 -1.64699 1.58033
lowerneck -16.5649 0.878027 6.32718
upperneck 15.6001 -1.88705 7.9926
head 7.63404 0.260128 1.3972
rclavicle 7.07673e-014 1.04958e-013
rhumerus -25.1383 -30.2112 5.2861
rradius 32.5096
rwrist -2.71432
rhand -20.0962 -3.61715
rfingers 7.12502
rthumb 6.2469 -33.505
lclavicle 7.07673e-014 1.04958e-013
lhumerus -29.4665 34.5939 33.051
lradius 34.254
lwrist 9.22987
lhand -20.0337 -2.79665
lfingers 7.12502
lthumb 6.30728 27.0894
rfemur -7.56212 -6.45095 24.0474
rtibia 51.1547
rfoot 9.18789 -16.8431
rtoes 2.65728
lfemur -17.3872 -0.115628 -3.69037
ltibia 31.4948
lfoot -10.6367 13.9129
ltoes -12.7605
781
root 2.35503 18.2192 -3.58751 5.28548 6.74749 -12.0628
lowerback 13.9941 -1.39847 -11.1696
upperback 1.32224 -3.88553 -5.12674
thorax -6.0817 -1.65698 1.52612
lowerneck -16.5545 0.858728 6.25343
upperneck 15.6321 -1.92552 8.14139
head 7.64643 0.253139 1.45427
rclavicle -3.49861e-014 -2.54444e-014
rhumerus -25.0636 -30.1897 5.17484
rradius 32.534
rwrist -2.79951
rhand -20.0629 -3.51217
rfingers 7.12502
rthumb 6.27912 -33.3991
lclavicle -3.49861e-014 -2.54444e-014
lhumerus -29.5746 34.5412 33.082
lradius 34.1987
lwrist 9.17352
lhand -19.9846 -2.84265
lfingers 7.12502
lthumb 6.35471 27.042
rfemur -7.95235 -6.38326 23.9901
rtibia 51.412
rfoot 7.4148 -17.5271
rtoes 2.0536
lfemur -17.1119 -0.309109 -3.88913
ltibia 31.5269
lfoot -10.7733 14.1807
ltoes -12.5669
782
root 2.35985 18.2105 -3.54452 5.1855 6.73269 -11.9102
lowerback 14.1299 -1.3997 -11.2071
upperback 1.35158 -3.91607 -5.20909
thorax -6.1264 -1.66996 1.46896
lowerneck -16.5611 0.834546 6.13409
upperneck 15.6806 -1.97351 8.34603
head 7.66867 0.245518 1.53647
rclavicle 1.03368e-014 -9.54166e-015
rhumerus -24.9556 -30.2237 5.05254
rradius 32.5725
rwrist -2.84952
rhand -19.9922 -3.36432
rfingers 7.12502
rthumb 6.34732 -33.2492
lclavicle 1.03368e-014 -9.54166e-015
lhumerus -29.687 34.5294 33.1048
lradius 34.1256
lwrist 9.10744
lhand -19.948 -2.87299
lfingers 7.12502
lthumb 6.38997 27.0106
rfemur -8.36563 -6.2833 23.9339
rtibia 51.6245
rfoot 5.69904 -18.1906
rtoes 1.606
lfemur -16.8361 -0.492661 -4.09427
ltibia 31.5687
lfoot -10.9118 14.4702
ltoes -12.4385
783
root 2.36379 18.201 -3.50251 5.08445 6.69174 -11.7654
lowerback 14.2583 -1.4013 -11.2356
upperback 1.39022 -3.94361 -5.29053
thorax -6.15767 -1.68267 1.4069
lowerneck -16.5773 0.807603 6.00516
upperneck 15.7242 -2.02499 8.55771
head 7.69136 0.236308 1.62227
rclavicle -1.59028e-014 -9.54166e-015
rhumerus -24.8192 -30.2935 4.92869
rradius 32.6263
rwrist -2.85255
rhand -19.957 -3.32046
rfingers 7.12502
rthumb 6.3813 -33.2043
lclavicle -1.59028e-014 -9.54166e-015
lhumerus -29.8103 34.5234 33.1358
lradius 34.0591
lwrist 9.04156
lhand -19.9349 -2.86522
lfingers 7.12502
lthumb 6.40264 27.018
rfemur -8.80254 -6.13731 23.8941
rtibia 51.7911
rfoot 4.03691 -18.8158
rtoes 1.34308
lfemur -16.556 -0.651448 -4.29133
ltibia 31.6181
lfoot -11.0522 14.7685
ltoes -12.3264
784
root 2.3668 18.1907 -3.46163 4.98214 6.61941 -11.6251
lowerback 14.391 -1.40397 -11.2606
upperback 1.43082 -3.97292 -5.3752
thorax -6.18953 -1.69641 1.33996
lowerneck -16.5702 0.78741 5.89964
upperneck 15.7569 -2.0679 8.75932
head 7.70614 0.230449 1.70169
rclavicle 3.18055e-014 3.49861e-014
rhumerus -24.6423 -30.3969 4.79172
rradius 32.6936
rwrist -2.7972
rhand -19.9096 -3.25864
rfingers 7.12502
rthumb 6.42705 -33.1411
lclavicle 3.18055e-014 3.49861e-014
lhumerus -29.9581 34.5369 33.1526
lradius 33.9926
lwrist 8.977
lhand -19.945 -2.85668
lfingers 7.12502
lthumb 6.39287 27.0268
rfemur -9.26459 -5.94552 23.8652
rtibia 51.9145
rfoot 2.44533 -19.3711
rtoes 1.19511
lfemur -16.2699 -0.777514 -4.48399
ltibia 31.6729
lfoot -11.1857 15.0691
ltoes -12.2546
